<?xml version="1.0" encoding="utf-8"?>
<svg version="1.1" id="Ebene_1" xmlns="http://www.w3.org/2000/svg" xmlns:xlink="http://www.w3.org/1999/xlink" x="0px" y="0px"
	 viewBox="0 0 56.7 56.7" style="enable-background:new 0 0 56.7 56.7;" xml:space="preserve">
<style type="text/css">
	.st0{fill:#1A2366;}
	.st1{fill:#FFFFFF;}
</style>
<rect class="st0" width="56.7" height="56.7"/>
<g>
	<path class="st1" d="M45.7,25v-5.6v-3.6h-3.6h-2.3H27.5l-3.6-3.6h-8.6H13H9.3v3.6v21.8v3.6H13h2.3h10.8c2.3,3.3,6.1,5.5,10.5,5.5
		c7,0,12.7-5.7,12.7-12.7C49.3,30.4,48,27.3,45.7,25z M24.4,37.5h-9.1H13V19.4h26.7H42v3c-1.7-0.8-3.5-1.2-5.5-1.2
		c-7,0-12.7,5.7-12.7,12.7C23.9,35.2,24.1,36.4,24.4,37.5z M36.6,43c-5,0-9.1-4.1-9.1-9.1s4.1-9.1,9.1-9.1s9.1,4.1,9.1,9.1
		C45.7,38.9,41.6,43,36.6,43z"/>
	<polygon class="st1" points="37.5,26.6 34.8,26.6 34.8,35.7 41.4,39.6 42.7,37.4 37.5,34.4 	"/>
</g>
</svg>
